<svg xmlns="http://www.w3.org/2000/svg" viewBox="0 0 215.26 30.85"><title>GoMagic_white</title><path d="M21.72,15.17h5.06V26.65a16.07,16.07,0,0,1-5.18,2.71,19.67,19.67,0,0,1-6.09.95A16.47,16.47,0,0,1,7.57,28.4,14.2,14.2,0,0,1,2,23.11,14.48,14.48,0,0,1,0,15.5,14.51,14.51,0,0,1,2,7.89,14.19,14.19,0,0,1,7.59,2.6a16.68,16.68,0,0,1,8-1.91,17.52,17.52,0,0,1,6.58,1.19,12.87,12.87,0,0,1,5,3.5L23.78,8.67a10.84,10.84,0,0,0-7.94-3.29,11.23,11.23,0,0,0-5.41,1.27,9.37,9.37,0,0,0-3.7,3.58A10.35,10.35,0,0,0,5.39,15.5a10.12,10.12,0,0,0,1.34,5.18,9.47,9.47,0,0,0,3.7,3.62,10.85,10.85,0,0,0,5.37,1.32,11.54,11.54,0,0,0,5.92-1.48Z" style="fill:#fff"/><path d="M96.44,29.9l0-19.09-9.46,15.8H84.55L75.09,11.06V29.9H70V1.1h4.4L85.83,20.19,97.06,1.1h4.4l0,28.8Z" style="fill:#fff"/><path d="M129.18,23.23h-14.4l-2.84,6.67h-5.51l13-28.8h5.26l13,28.8h-5.59ZM127.41,19,122,6.45,116.59,19Z" style="fill:#fff"/><path d="M161.68,15.17h5.06V26.65a16.12,16.12,0,0,1-5.19,2.71,19.58,19.58,0,0,1-6.09.95,16.5,16.5,0,0,1-7.94-1.91A14.2,14.2,0,0,1,142,23.11a14.48,14.48,0,0,1-2-7.61,14.51,14.51,0,0,1,2-7.61,14.19,14.19,0,0,1,5.57-5.29,16.72,16.72,0,0,1,8-1.91,17.6,17.6,0,0,1,6.58,1.19,13,13,0,0,1,5,3.5l-3.38,3.29a10.83,10.83,0,0,0-7.94-3.29,11.23,11.23,0,0,0-5.41,1.27,9.37,9.37,0,0,0-3.7,3.58,10.35,10.35,0,0,0-1.34,5.27,10.12,10.12,0,0,0,1.34,5.18,9.47,9.47,0,0,0,3.7,3.62,10.85,10.85,0,0,0,5.37,1.32,11.6,11.6,0,0,0,5.93-1.48Z" style="fill:#fff"/><path d="M175.49,1.1h5.34V29.9h-5.34Z" style="fill:#fff"/><path d="M195.94,28.4a14.16,14.16,0,0,1-5.51-5.29,14.66,14.66,0,0,1-2-7.61,14.51,14.51,0,0,1,2-7.61A14.28,14.28,0,0,1,196,2.6,16.29,16.29,0,0,1,203.86.69a16.49,16.49,0,0,1,6.46,1.23,13.33,13.33,0,0,1,4.94,3.58L211.8,8.75a10.06,10.06,0,0,0-7.69-3.37,10.71,10.71,0,0,0-5.31,1.3,9.32,9.32,0,0,0-3.66,3.6,10.28,10.28,0,0,0-1.32,5.22,10.28,10.28,0,0,0,1.32,5.22,9.32,9.32,0,0,0,3.66,3.6,10.71,10.71,0,0,0,5.31,1.3,10,10,0,0,0,7.69-3.41l3.46,3.29a13.32,13.32,0,0,1-5,3.58,16.63,16.63,0,0,1-6.48,1.23A16.29,16.29,0,0,1,195.94,28.4Z" style="fill:#fff"/><path d="M42.64,10c4.75-4.75,10.26-7.4,14-7.44A15.43,15.43,0,0,0,35.2,24C35.24,20.28,37.89,14.77,42.64,10Z" style="fill:#fff"/><path d="M60.87,6.87c0,3.69-2.69,9.2-7.44,14s-10.25,7.4-14,7.44A15.43,15.43,0,0,0,60.87,6.87Z" style="fill:#fff"/></svg>